<svg width="183" height="46" viewBox="0 0 183 46" fill="none" xmlns="http://www.w3.org/2000/svg">
<g clip-path="url(#clip0_128_176)">
<g filter="url(#filter0_d_128_176)">
<path d="M51.3279 11.2255H54.3332V30.6017H65.5694V33.2222H51.3279V11.2255ZM68.1819 17.26H70.9457V33.2222H68.1819V17.26ZM68.1819 11.2255H70.9457V14.2801H68.1819V11.2255ZM75.0686 17.1851H77.6513V19.4611C78.4163 18.5228 79.2269 17.849 80.0826 17.4397C80.9383 17.0304 81.8899 16.8257 82.9369 16.8257C85.2326 16.8257 86.783 17.6193 87.5884 19.2066C88.0315 20.0751 88.2529 21.3179 88.2529 22.9351V33.2222H85.4893V23.1148C85.4893 22.1365 85.3432 21.3479 85.0512 20.7489C84.5679 19.7506 83.6921 19.2515 82.4234 19.2515C81.7791 19.2515 81.2504 19.3164 80.8378 19.4462C80.0926 19.6658 79.4382 20.105 78.8745 20.7639C78.4214 21.2929 78.1242 21.842 77.9835 22.411C77.8526 22.97 77.7871 23.7736 77.7871 24.8218V33.2222H75.0686V17.1851ZM97.9939 16.9006C99.2625 16.9006 100.37 17.2101 101.317 17.829C101.83 18.1784 102.353 18.6875 102.887 19.3563V17.3348H105.394V31.9194C105.394 33.9559 105.092 35.5631 104.488 36.7412C103.36 38.9173 101.231 40.0054 98.0996 40.0054C96.358 40.0054 94.893 39.6162 93.705 38.8375C92.5168 38.0688 91.8523 36.8608 91.7113 35.2137H94.4752C94.6061 35.9324 94.8677 36.4864 95.2605 36.8759C95.8747 37.4749 96.8413 37.7742 98.1602 37.7742C100.244 37.7742 101.609 37.0456 102.253 35.5881C102.635 34.7295 102.812 33.1972 102.782 30.9912C102.238 31.8097 101.583 32.4185 100.818 32.8179C100.053 33.2171 99.0411 33.4169 97.7826 33.4169C96.0307 33.4169 94.4953 32.8028 93.1764 31.5751C91.8675 30.3372 91.2131 28.2959 91.2131 25.4507C91.2131 22.7654 91.8724 20.669 93.1913 19.1617C94.5205 17.6543 96.1214 16.9006 97.9939 16.9006ZM102.887 25.1363C102.887 23.1497 102.474 21.6773 101.649 20.7189C100.823 19.7606 99.7711 19.2814 98.4924 19.2814C96.5794 19.2814 95.2706 20.1699 94.5659 21.9468C94.1932 22.8952 94.0071 24.138 94.0071 25.6754C94.0071 27.4822 94.3744 28.8599 95.1095 29.8082C95.8546 30.7464 96.8513 31.2156 98.0996 31.2156C100.053 31.2156 101.427 30.3421 102.223 28.5954C102.666 27.6069 102.887 26.4541 102.887 25.1363ZM115.92 31.4852C117.723 31.4852 118.956 30.8113 119.621 29.4637C120.295 28.106 120.632 26.5987 120.632 24.9416C120.632 23.4442 120.391 22.2263 119.908 21.288C119.142 19.8105 117.823 19.0718 115.951 19.0718C114.289 19.0718 113.081 19.7007 112.326 20.9585C111.571 22.2163 111.193 23.7337 111.193 25.5106C111.193 27.2177 111.571 28.6401 112.326 29.7781C113.081 30.9163 114.279 31.4852 115.92 31.4852ZM116.026 16.7209C118.11 16.7209 119.872 17.4097 121.312 18.7873C122.752 20.1649 123.472 22.1914 123.472 24.8667C123.472 27.4523 122.837 29.5885 121.569 31.2756C120.3 32.9626 118.332 33.8061 115.664 33.8061C113.439 33.8061 111.672 33.0625 110.363 31.5751C109.054 30.0776 108.399 28.0712 108.399 25.5555C108.399 22.8602 109.089 20.714 110.469 19.1167C111.848 17.5195 113.7 16.7209 116.026 16.7209ZM127.081 11.2255H130.086V30.6017H141.323V33.2222H127.081V11.2255ZM143.935 17.26H146.699V33.2222H143.935V17.26ZM143.935 11.2255H146.699V14.2801H143.935V11.2255ZM150.822 17.1851H153.405V19.4611C154.17 18.5228 154.98 17.849 155.836 17.4397C156.692 17.0304 157.643 16.8257 158.69 16.8257C160.986 16.8257 162.536 17.6193 163.342 19.2066C163.785 20.0751 164.006 21.3179 164.006 22.9351V33.2222H161.243V23.1148C161.243 22.1365 161.097 21.3479 160.805 20.7489C160.321 19.7506 159.445 19.2515 158.177 19.2515C157.532 19.2515 157.004 19.3164 156.591 19.4462C155.846 19.6658 155.191 20.105 154.628 20.7639C154.175 21.2929 153.878 21.842 153.737 22.411C153.606 22.97 153.54 23.7736 153.54 24.8218V33.2222H150.822V17.1851ZM167.978 11.2255H170.591V23.9982L177.568 17.1851H181.042L174.85 23.1897L181.389 33.2222H177.915L172.871 25.1363L170.591 27.2026V33.2222H167.978V11.2255Z" fill="white"/>
</g>
<g filter="url(#filter1_d_128_176)">
<path d="M15.3995 16.3033L8.57104 24.356L15.5301 32.2519L22.3585 24.1992L15.3995 16.3033Z" fill="#2F2F2F" stroke="#F8F9FA" stroke-width="2"/>
<path d="M8.94279 16.2366L0.911133 24.3551L9.09928 32.3185L17.1309 24.1999L8.94279 16.2366Z" fill="#2F2F2F" stroke="#F8F9FA" stroke-width="2"/>
<path d="M19.2528 26.4588L11.2212 34.5774L19.4093 42.5408L27.441 34.4222L19.2528 26.4588Z" fill="#2F2F2F" stroke="#F8F9FA" stroke-width="2"/>
<path d="M19.2528 6.01439L11.2212 14.1329L19.4093 22.0963L27.441 13.9778L19.2528 6.01439Z" fill="#2F2F2F" stroke="#F8F9FA" stroke-width="2"/>
</g>
<path d="M39.3064 10.2222V35.7778" stroke="#F8F9FA" stroke-width="0.5"/>
</g>
<defs>
<filter id="filter0_d_128_176" x="47.3279" y="7.22546" width="138.061" height="36.78" filterUnits="userSpaceOnUse" color-interpolation-filters="sRGB">
<feFlood flood-opacity="0" result="BackgroundImageFix"/>
<feColorMatrix in="SourceAlpha" type="matrix" values="0 0 0 0 0 0 0 0 0 0 0 0 0 0 0 0 0 0 127 0" result="hardAlpha"/>
<feOffset/>
<feGaussianBlur stdDeviation="2"/>
<feComposite in2="hardAlpha" operator="out"/>
<feColorMatrix type="matrix" values="0 0 0 0 0 0 0 0 0 0 0 0 0 0 0 0 0 0 0.1 0"/>
<feBlend mode="normal" in2="BackgroundImageFix" result="effect1_dropShadow_128_176"/>
<feBlend mode="normal" in="SourceGraphic" in2="effect1_dropShadow_128_176" result="shape"/>
</filter>
<filter id="filter1_d_128_176" x="-4.50903" y="0.606262" width="37.3701" height="47.3426" filterUnits="userSpaceOnUse" color-interpolation-filters="sRGB">
<feFlood flood-opacity="0" result="BackgroundImageFix"/>
<feColorMatrix in="SourceAlpha" type="matrix" values="0 0 0 0 0 0 0 0 0 0 0 0 0 0 0 0 0 0 127 0" result="hardAlpha"/>
<feOffset/>
<feGaussianBlur stdDeviation="2"/>
<feComposite in2="hardAlpha" operator="out"/>
<feColorMatrix type="matrix" values="0 0 0 0 0 0 0 0 0 0 0 0 0 0 0 0 0 0 0.1 0"/>
<feBlend mode="normal" in2="BackgroundImageFix" result="effect1_dropShadow_128_176"/>
<feBlend mode="normal" in="SourceGraphic" in2="effect1_dropShadow_128_176" result="shape"/>
</filter>
<clipPath id="clip0_128_176">
<rect width="183" height="46" fill="white"/>
</clipPath>
</defs>
</svg>
