<svg width="183" height="46" viewBox="0 0 183 46" fill="none" xmlns="http://www.w3.org/2000/svg">
<g clip-path="url(#clip0_30_504)">
<g filter="url(#filter0_d_30_504)">
<path d="M51.3279 11.2256H54.3332V30.6019H65.5694V33.2223H51.3279V11.2256ZM68.1819 17.2601H70.9457V33.2223H68.1819V17.2601ZM68.1819 11.2256H70.9457V14.2803H68.1819V11.2256ZM75.0686 17.1852H77.6513V19.4612C78.4163 18.5229 79.2269 17.8491 80.0826 17.4398C80.9383 17.0305 81.8899 16.8258 82.9369 16.8258C85.2326 16.8258 86.783 17.6195 87.5884 19.2067C88.0315 20.0752 88.2529 21.318 88.2529 22.9352V33.2223H85.4893V23.1149C85.4893 22.1366 85.3432 21.348 85.0512 20.749C84.5679 19.7508 83.6921 19.2516 82.4234 19.2516C81.7791 19.2516 81.2504 19.3165 80.8378 19.4463C80.0926 19.6659 79.4382 20.1051 78.8745 20.764C78.4214 21.2931 78.1242 21.8421 77.9835 22.4111C77.8526 22.9702 77.7871 23.7737 77.7871 24.8219V33.2223H75.0686V17.1852ZM97.9939 16.9007C99.2625 16.9007 100.37 17.2102 101.317 17.8291C101.83 18.1785 102.353 18.6876 102.887 19.3564V17.3349H105.394V31.9195C105.394 33.956 105.092 35.5632 104.488 36.7413C103.36 38.9174 101.231 40.0055 98.0996 40.0055C96.358 40.0055 94.893 39.6163 93.705 38.8377C92.5168 38.0689 91.8523 36.8609 91.7113 35.2139H94.4752C94.6061 35.9325 94.8677 36.4865 95.2605 36.876C95.8747 37.475 96.8413 37.7743 98.1602 37.7743C100.244 37.7743 101.609 37.0457 102.253 35.5883C102.635 34.7296 102.812 33.1973 102.782 30.9913C102.238 31.8099 101.583 32.4186 100.818 32.818C100.053 33.2172 99.0411 33.4171 97.7826 33.4171C96.0307 33.4171 94.4953 32.803 93.1764 31.5753C91.8675 30.3374 91.2131 28.296 91.2131 25.4508C91.2131 22.7655 91.8724 20.6692 93.1913 19.1618C94.5205 17.6544 96.1214 16.9007 97.9939 16.9007ZM102.887 25.1364C102.887 23.1498 102.474 21.6774 101.649 20.7191C100.823 19.7607 99.7711 19.2816 98.4924 19.2816C96.5794 19.2816 95.2706 20.17 94.5659 21.9469C94.1932 22.8953 94.0071 24.1381 94.0071 25.6755C94.0071 27.4823 94.3744 28.86 95.1095 29.8084C95.8546 30.7465 96.8513 31.2157 98.0996 31.2157C100.053 31.2157 101.427 30.3422 102.223 28.5955C102.666 27.607 102.887 26.4542 102.887 25.1364ZM115.92 31.4853C117.723 31.4853 118.956 30.8114 119.621 29.4639C120.295 28.1061 120.632 26.5988 120.632 24.9417C120.632 23.4443 120.391 22.2265 119.908 21.2881C119.142 19.8106 117.823 19.0719 115.951 19.0719C114.289 19.0719 113.081 19.7008 112.326 20.9586C111.571 22.2165 111.193 23.7338 111.193 25.5107C111.193 27.2178 111.571 28.6402 112.326 29.7782C113.081 30.9164 114.279 31.4853 115.92 31.4853ZM116.026 16.721C118.11 16.721 119.872 17.4098 121.312 18.7874C122.752 20.165 123.472 22.1915 123.472 24.8669C123.472 27.4524 122.837 29.5886 121.569 31.2758C120.3 32.9627 118.332 33.8063 115.664 33.8063C113.439 33.8063 111.672 33.0626 110.363 31.5753C109.054 30.0777 108.399 28.0713 108.399 25.5557C108.399 22.8603 109.089 20.7141 110.469 19.1169C111.848 17.5196 113.7 16.721 116.026 16.721ZM127.081 11.2256H130.086V30.6019H141.323V33.2223H127.081V11.2256ZM143.935 17.2601H146.699V33.2223H143.935V17.2601ZM143.935 11.2256H146.699V14.2803H143.935V11.2256ZM150.822 17.1852H153.405V19.4612C154.17 18.5229 154.98 17.8491 155.836 17.4398C156.692 17.0305 157.643 16.8258 158.69 16.8258C160.986 16.8258 162.536 17.6195 163.342 19.2067C163.785 20.0752 164.006 21.318 164.006 22.9352V33.2223H161.243V23.1149C161.243 22.1366 161.097 21.348 160.805 20.749C160.321 19.7508 159.445 19.2516 158.177 19.2516C157.532 19.2516 157.004 19.3165 156.591 19.4463C155.846 19.6659 155.191 20.1051 154.628 20.764C154.175 21.2931 153.878 21.8421 153.737 22.4111C153.606 22.9702 153.54 23.7737 153.54 24.8219V33.2223H150.822V17.1852ZM167.978 11.2256H170.591V23.9984L177.568 17.1852H181.042L174.85 23.1898L181.389 33.2223H177.915L172.871 25.1364L170.591 27.2027V33.2223H167.978V11.2256Z" fill="white"/>
</g>
<g filter="url(#filter1_d_30_504)">
<path d="M15.3995 16.3033L8.57104 24.356L15.5301 32.2519L22.3585 24.1992L15.3995 16.3033Z" fill="#4FD1C5" stroke="#F8F9FA" stroke-width="2"/>
<path d="M8.94279 16.2367L0.911133 24.3552L9.09928 32.3186L17.1309 24.2001L8.94279 16.2367Z" fill="#4FD1C5" stroke="#F8F9FA" stroke-width="2"/>
<path d="M19.2528 26.4588L11.2212 34.5774L19.4093 42.5408L27.441 34.4222L19.2528 26.4588Z" fill="#4FD1C5" stroke="#F8F9FA" stroke-width="2"/>
<path d="M19.2528 6.01451L11.2212 14.1331L19.4093 22.0964L27.441 13.9779L19.2528 6.01451Z" fill="#4FD1C5" stroke="#F8F9FA" stroke-width="2"/>
</g>
<path d="M39.3064 10.2222V35.7777" stroke="#F8F9FA" stroke-width="0.5"/>
</g>
<defs>
<filter id="filter0_d_30_504" x="47.3279" y="7.22559" width="138.061" height="36.78" filterUnits="userSpaceOnUse" color-interpolation-filters="sRGB">
<feFlood flood-opacity="0" result="BackgroundImageFix"/>
<feColorMatrix in="SourceAlpha" type="matrix" values="0 0 0 0 0 0 0 0 0 0 0 0 0 0 0 0 0 0 127 0" result="hardAlpha"/>
<feOffset/>
<feGaussianBlur stdDeviation="2"/>
<feComposite in2="hardAlpha" operator="out"/>
<feColorMatrix type="matrix" values="0 0 0 0 0 0 0 0 0 0 0 0 0 0 0 0 0 0 0.1 0"/>
<feBlend mode="normal" in2="BackgroundImageFix" result="effect1_dropShadow_30_504"/>
<feBlend mode="normal" in="SourceGraphic" in2="effect1_dropShadow_30_504" result="shape"/>
</filter>
<filter id="filter1_d_30_504" x="-4.50903" y="0.606445" width="37.3701" height="47.3425" filterUnits="userSpaceOnUse" color-interpolation-filters="sRGB">
<feFlood flood-opacity="0" result="BackgroundImageFix"/>
<feColorMatrix in="SourceAlpha" type="matrix" values="0 0 0 0 0 0 0 0 0 0 0 0 0 0 0 0 0 0 127 0" result="hardAlpha"/>
<feOffset/>
<feGaussianBlur stdDeviation="2"/>
<feComposite in2="hardAlpha" operator="out"/>
<feColorMatrix type="matrix" values="0 0 0 0 0 0 0 0 0 0 0 0 0 0 0 0 0 0 0.1 0"/>
<feBlend mode="normal" in2="BackgroundImageFix" result="effect1_dropShadow_30_504"/>
<feBlend mode="normal" in="SourceGraphic" in2="effect1_dropShadow_30_504" result="shape"/>
</filter>
<clipPath id="clip0_30_504">
<rect width="183" height="46" fill="white"/>
</clipPath>
</defs>
</svg>
