<svg width="9" height="5" viewBox="0 0 9 5" fill="none" xmlns="http://www.w3.org/2000/svg">
<path d="M4.5 4.99999C4.39238 4.99999 4.28798 4.9809 4.18682 4.94274C4.08565 4.90457 4.0017 4.85368 3.93498 4.79006L0.221973 1.27862C0.0739907 1.13867 0 0.960557 0 0.744273C0 0.527988 0.0739907 0.349872 0.221973 0.209923C0.369955 0.0699741 0.558296 0 0.786995 0C1.01569 0 1.20404 0.0699741 1.35202 0.209923L4.5 3.18702L7.64798 0.209923C7.79596 0.0699741 7.9843 0 8.213 0C8.4417 0 8.63004 0.0699741 8.77803 0.209923C8.92601 0.349872 9 0.527988 9 0.744273C9 0.960557 8.92601 1.13867 8.77803 1.27862L5.06502 4.79006C4.9843 4.8664 4.89686 4.9206 4.80269 4.95266C4.70852 4.98472 4.60762 5.0005 4.5 4.99999Z" fill="white"/>
</svg>
