<svg width="61" height="61" viewBox="0 0 61 61" fill="none" xmlns="http://www.w3.org/2000/svg">
<path d="M32.5333 27.9583V12.7083H37.6167V19.3167L50.325 6.60834L53.8833 10.1667L41.175 22.875H47.7833V27.9583H32.5333ZM50.7063 53.375C45.2417 53.375 39.9152 52.1567 34.7268 49.7201C29.5384 47.2835 24.9422 44.064 20.9383 40.0618C16.9343 36.0595 13.7148 31.4633 11.2799 26.2732C8.845 21.0831 7.62669 15.7566 7.625 10.2938C7.625 9.53125 7.87917 8.89584 8.3875 8.3875C8.89583 7.87917 9.53125 7.625 10.2938 7.625H20.5875C21.1806 7.625 21.7101 7.81563 22.176 8.19688C22.642 8.57813 22.9174 9.06528 23.0021 9.65834L24.6542 18.5542C24.7389 19.1472 24.7279 19.6878 24.6211 20.1758C24.5144 20.6638 24.2712 21.0975 23.8917 21.4771L17.7917 27.7042C19.5708 30.7542 21.7948 33.6135 24.4635 36.2823C27.1323 38.951 30.0764 41.2597 33.2958 43.2083L39.2688 37.2354C39.65 36.8542 40.1482 36.5687 40.7633 36.3789C41.3783 36.1891 41.9816 36.1357 42.5729 36.2188L51.3417 37.9979C51.9347 38.125 52.4219 38.4114 52.8031 38.857C53.1844 39.3026 53.375 39.8211 53.375 40.4125V50.7063C53.375 51.4688 53.1208 52.1042 52.6125 52.6125C52.1042 53.1208 51.4688 53.375 50.7063 53.375Z" fill="white"/>
</svg>
