<svg width="60" height="60" viewBox="0 0 60 60" fill="none" xmlns="http://www.w3.org/2000/svg">
<path d="M49.875 52.5C44.5 52.5 39.2608 51.3125 34.1575 48.9375C29.0542 46.5625 24.5333 43.3958 20.595 39.4375C16.6567 35.4792 13.49 30.9475 11.095 25.8425C8.7 20.7375 7.50167 15.4983 7.5 10.125V8.8125C7.5 8.35417 7.54167 7.91667 7.625 7.5H22.25L24.5625 20.0625L17.4375 27.25C19.1875 30.25 21.3858 33.0625 24.0325 35.6875C26.6792 38.3125 29.585 40.5833 32.75 42.5L40 35.25L52.5 37.75V52.375C52.0833 52.4167 51.6458 52.4483 51.1875 52.47C50.7292 52.4917 50.2917 52.5017 49.875 52.5Z" fill="#F8F9FA"/>
</svg>
