<svg width="46" height="46" viewBox="0 0 46 46" fill="none" xmlns="http://www.w3.org/2000/svg">
<path d="M42.875 45.5C37.5 45.5 32.2608 44.3125 27.1575 41.9375C22.0542 39.5625 17.5333 36.3958 13.595 32.4375C9.65667 28.4792 6.49 23.9475 4.095 18.8425C1.7 13.7375 0.501667 8.49833 0.5 3.125V1.8125C0.5 1.35417 0.541667 0.916667 0.625 0.5H15.25L17.5625 13.0625L10.4375 20.25C12.1875 23.25 14.3858 26.0625 17.0325 28.6875C19.6792 31.3125 22.585 33.5833 25.75 35.5L33 28.25L45.5 30.75V45.375C45.0833 45.4167 44.6458 45.4483 44.1875 45.47C43.7292 45.4917 43.2917 45.5017 42.875 45.5Z" fill="#F8F9FA"/>
</svg>
