<svg width="48" height="40" viewBox="0 0 48 40" fill="none" xmlns="http://www.w3.org/2000/svg">
<g filter="url(#filter0_d_76_67)">
<path d="M43.0584 9.77801L43.059 9.77798C43.1508 9.77421 43.1905 9.79394 43.2337 9.85421C43.3039 9.95215 43.4046 10.2034 43.4046 10.7692V29.2307C43.4046 29.7121 43.3275 29.9699 43.2568 30.0981C43.1977 30.2053 43.1453 30.2224 43.1097 30.2298C43.05 30.2423 42.958 30.2348 42.8434 30.195C42.7306 30.1558 42.644 30.1019 42.6184 30.0826L42.6035 30.0713L42.5877 30.0612L32.6051 23.6293C32.3517 23.4308 32.1923 23.108 32.1923 22.7876V17.2123C32.1923 16.891 32.3524 16.5673 32.6045 16.371L42.5877 9.94029L42.5948 9.93569L42.6018 9.93085C42.7364 9.83755 42.8947 9.78453 43.0584 9.77801ZM4.49679 11.5147C4.49674 11.5147 4.49693 11.514 4.49752 11.5127L4.49679 11.5147ZM4.5 11.5076C4.50527 11.4977 4.51823 11.4775 4.54725 11.4467C4.61713 11.3725 4.74926 11.2718 4.97356 11.1566C5.42088 10.927 6.14036 10.6872 7.17849 10.4718C9.24745 10.0426 12.4791 9.73071 17.0769 9.73071C21.6732 9.73071 24.904 10.0601 26.9721 10.5036C28.0096 10.7261 28.7297 10.9723 29.1779 11.2054C29.4028 11.3223 29.5361 11.4243 29.607 11.4993C29.6349 11.5289 29.6481 11.5487 29.6538 11.5589V28.4923C29.6486 28.5022 29.6356 28.5224 29.6066 28.5532C29.5367 28.6274 29.4046 28.7281 29.1803 28.8433C28.733 29.0729 28.0135 29.3127 26.9754 29.5281C24.9064 29.9573 21.6747 30.2692 17.0769 30.2692C12.4806 30.2692 9.24985 29.9398 7.18177 29.4963C6.14424 29.2737 5.4241 29.0276 4.97592 28.7945C4.75107 28.6776 4.61774 28.5756 4.54689 28.5006C4.51896 28.471 4.50575 28.4512 4.5 28.441V11.5076ZM4.49607 28.4329C4.4961 28.4329 4.49636 28.4334 4.49673 28.4346L4.49607 28.4329ZM29.6571 28.4852C29.6571 28.4852 29.6569 28.4858 29.6563 28.4872L29.6571 28.4852ZM29.6578 11.567C29.6577 11.567 29.6575 11.5664 29.6571 11.5653L29.6578 11.567Z" fill="#4FD1C5" stroke="#D9D9D9"/>
</g>
<defs>
<filter id="filter0_d_76_67" x="0" y="0" width="48" height="48" filterUnits="userSpaceOnUse" color-interpolation-filters="sRGB">
<feFlood flood-opacity="0" result="BackgroundImageFix"/>
<feColorMatrix in="SourceAlpha" type="matrix" values="0 0 0 0 0 0 0 0 0 0 0 0 0 0 0 0 0 0 127 0" result="hardAlpha"/>
<feOffset dy="4"/>
<feGaussianBlur stdDeviation="2"/>
<feComposite in2="hardAlpha" operator="out"/>
<feColorMatrix type="matrix" values="0 0 0 0 0 0 0 0 0 0 0 0 0 0 0 0 0 0 0.25 0"/>
<feBlend mode="normal" in2="BackgroundImageFix" result="effect1_dropShadow_76_67"/>
<feBlend mode="normal" in="SourceGraphic" in2="effect1_dropShadow_76_67" result="shape"/>
</filter>
</defs>
</svg>
