<svg width="73" height="72" viewBox="0 0 73 72" fill="none" xmlns="http://www.w3.org/2000/svg">
<path d="M63.8 37.5L68 41.73L48.41 61.5L38 51L42.2 46.77L48.41 53.01L63.8 37.5ZM30.5 51L39.5 60H9.5V54C9.5 47.37 20.24 42 33.5 42L39.17 42.33L30.5 51ZM33.5 12C36.6826 12 39.7348 13.2643 41.9853 15.5147C44.2357 17.7652 45.5 20.8174 45.5 24C45.5 27.1826 44.2357 30.2348 41.9853 32.4853C39.7348 34.7357 36.6826 36 33.5 36C30.3174 36 27.2652 34.7357 25.0147 32.4853C22.7643 30.2348 21.5 27.1826 21.5 24C21.5 20.8174 22.7643 17.7652 25.0147 15.5147C27.2652 13.2643 30.3174 12 33.5 12Z" fill="#B3B3B3"/>
</svg>
