<svg width="49" height="46" viewBox="0 0 49 46" fill="none" xmlns="http://www.w3.org/2000/svg">
<path d="M34.25 20.4375C33.5417 20.4375 32.9475 20.1983 32.4675 19.72C31.9875 19.2417 31.7483 18.6475 31.75 17.9375C31.75 17.2292 31.99 16.6358 32.47 16.1575C32.95 15.6792 33.5433 15.4392 34.25 15.4375C34.9583 15.4375 35.5525 15.6775 36.0325 16.1575C36.5125 16.6375 36.7517 17.2308 36.75 17.9375C36.75 18.6458 36.51 19.24 36.03 19.72C35.55 20.2 34.9567 20.4392 34.25 20.4375ZM28 14.3125L25.375 11.6875C26.5833 10.4792 27.9483 9.5525 29.47 8.9075C30.9917 8.2625 32.585 7.93917 34.25 7.9375C35.9167 7.9375 37.5108 8.26083 39.0325 8.9075C40.5542 9.55417 41.9183 10.4808 43.125 11.6875L40.5 14.3125C39.6667 13.4792 38.7192 12.8333 37.6575 12.375C36.5958 11.9167 35.46 11.6875 34.25 11.6875C33.0417 11.6875 31.9058 11.9167 30.8425 12.375C29.7792 12.8333 28.8317 13.4792 28 14.3125ZM22.75 8.9375L20.125 6.3125C22 4.4375 24.1567 2.99 26.595 1.97C29.0333 0.95 31.585 0.439167 34.25 0.4375C36.9167 0.4375 39.4692 0.948334 41.9075 1.97C44.3458 2.99167 46.5017 4.43917 48.375 6.3125L45.75 8.9375C44.2083 7.39583 42.4475 6.21833 40.4675 5.405C38.4875 4.59167 36.415 4.18667 34.25 4.19C32.0833 4.19 30.0208 4.60667 28.0625 5.44C26.1042 6.27333 24.3333 7.4375 22.75 8.9375ZM42.875 45.5C37.5 45.5 32.2608 44.3125 27.1575 41.9375C22.0542 39.5625 17.5333 36.3958 13.595 32.4375C9.65667 28.4792 6.49 23.9475 4.095 18.8425C1.7 13.7375 0.501667 8.49833 0.5 3.125V1.8125C0.5 1.35417 0.541667 0.916667 0.625 0.5H15.25L17.5625 13.0625L10.4375 20.25C12.1875 23.25 14.3858 26.0625 17.0325 28.6875C19.6792 31.3125 22.585 33.5833 25.75 35.5L33 28.25L45.5 30.75V45.375C45.0833 45.4167 44.6458 45.4483 44.1875 45.47C43.7292 45.4917 43.2917 45.5017 42.875 45.5Z" fill="white"/>
</svg>
