<svg width="9" height="10" viewBox="0 0 9 10" fill="none" xmlns="http://www.w3.org/2000/svg">
<path d="M3.21158 8.76332C5.29008 9.75103 7.77558 8.86681 8.76329 6.7883C8.84609 6.61406 8.59868 6.46097 8.43774 6.56763C8.0949 6.79423 7.705 6.93983 7.29755 6.99342C6.89011 7.04701 6.47581 7.00717 6.08605 6.87692C5.69628 6.74668 5.34126 6.52945 5.04788 6.24168C4.75451 5.95391 4.53046 5.60315 4.39272 5.21597C4.25498 4.82878 4.20716 4.41533 4.25287 4.00693C4.29859 3.59853 4.43664 3.20589 4.65658 2.85874C4.87652 2.5116 5.17257 2.21905 5.52231 2.00327C5.87205 1.78749 6.26631 1.65413 6.67523 1.61328C6.86756 1.59396 6.96251 1.31939 6.78827 1.23659C4.70976 0.248885 2.22426 1.1331 1.23656 3.21161C0.248852 5.29012 1.13307 7.77562 3.21158 8.76332Z" fill="#494949"/>
</svg>
