<svg width="48" height="47" viewBox="0 0 48 47" fill="none" xmlns="http://www.w3.org/2000/svg">
<path d="M4.41677 23.5C4.41775 19.2065 5.82967 15.0324 8.43524 11.62C11.0408 8.20751 14.6956 5.74591 18.8372 4.61398C22.9787 3.48206 27.3775 3.74255 31.3565 5.35537C35.3355 6.96818 38.6742 9.84394 40.8588 13.5401C43.0434 17.2362 43.9528 21.5478 43.4471 25.8113C42.9413 30.0749 41.0485 34.0541 38.0598 37.1365C35.0711 40.219 31.1522 42.2338 26.9063 42.871C22.6604 43.5081 18.3227 42.7323 14.5609 40.6628L6.94694 42.9815C6.60733 43.085 6.24598 43.0941 5.90155 43.0081C5.55712 42.922 5.24257 42.7439 4.99153 42.4929C4.7405 42.2419 4.56242 41.9273 4.47636 41.5829C4.3903 41.2385 4.39948 40.8771 4.50294 40.5375L6.8216 32.9118C5.23909 30.0275 4.41183 26.7899 4.41677 23.5ZM24.0001 7.83334C21.219 7.8331 18.488 8.57317 16.0876 9.97754C13.6871 11.3819 11.7038 13.3999 10.3412 15.8244C8.97868 18.2488 8.28606 20.9922 8.3345 23.7729C8.38294 26.5535 9.17069 29.2712 10.6169 31.6467C10.7604 31.8826 10.8524 32.1463 10.8868 32.4204C10.9213 32.6944 10.8973 32.9727 10.8166 33.2368L9.31652 38.1679L14.2398 36.6678C14.5048 36.5871 14.7839 36.5635 15.0587 36.5986C15.3335 36.6337 15.5977 36.7267 15.8339 36.8715C17.8986 38.1321 20.2273 38.8975 22.6374 39.1075C25.0474 39.3176 27.4734 38.9666 29.7251 38.0822C31.9769 37.1978 33.9932 35.8039 35.6161 34.0098C37.239 32.2157 38.4243 30.0702 39.0793 27.7413C39.7342 25.4125 39.8409 22.9636 39.391 20.5866C38.9412 18.2096 37.9469 15.9691 36.4862 14.0406C35.0255 12.1122 33.1381 10.5482 30.9718 9.47127C28.8055 8.39434 26.4193 7.83372 24.0001 7.83334Z" fill="#DEDEDE"/>
</svg>
