<svg width="73" height="72" viewBox="0 0 73 72" fill="none" xmlns="http://www.w3.org/2000/svg">
<path d="M47 42H44.63L43.79 41.19C46.8316 37.6621 48.5033 33.1581 48.5 28.5C48.5 23.3283 46.4455 18.3684 42.7886 14.7114C39.1316 11.0545 34.1717 9 29 9C18.74 9 10.34 16.92 9.58997 27H15.65C16.4 20.25 22.04 15 29 15C36.47 15 42.5 21.03 42.5 28.5C42.5 35.97 36.47 42 29 42C28.49 42 28.01 41.91 27.5 41.85V47.91C28.01 47.97 28.49 48 29 48C33.83 48 38.27 46.23 41.69 43.29L42.5 44.13V46.5L57.5 61.47L61.97 57L47 42Z" fill="#B3B3B3"/>
<path d="M19.91 32.46L12.5 39.87L5.08996 32.46L2.95996 34.59L10.37 42L2.95996 49.41L5.08996 51.54L12.5 44.13L19.91 51.54L22.04 49.41L14.63 42L22.04 34.59L19.91 32.46Z" fill="#B3B3B3"/>
</svg>
