<svg width="61" height="62" viewBox="0 0 61 62" fill="none" xmlns="http://www.w3.org/2000/svg">
<path d="M30.4999 5.58337C33.8377 5.58337 37.1428 6.2408 40.2265 7.5181C43.3102 8.79541 46.1121 10.6676 48.4722 13.0277C50.8324 15.3879 52.7046 18.1898 53.9819 21.2735C55.2592 24.3572 55.9166 27.6623 55.9166 31C55.9166 37.741 53.2388 44.2058 48.4722 48.9723C43.7057 53.7389 37.2408 56.4167 30.4999 56.4167C27.1622 56.4167 23.8571 55.7593 20.7734 54.482C17.6897 53.2047 14.8878 51.3325 12.5276 48.9723C7.76107 44.2058 5.08325 37.741 5.08325 31C5.08325 24.2591 7.76107 17.7943 12.5276 13.0277C17.2942 8.26119 23.759 5.58337 30.4999 5.58337ZM20.3333 20.0963V28.5855L38.4808 31L20.3333 33.4146V41.9038L33.0416 36.4519L45.7499 31L20.3333 20.0963Z" fill="#4FD1C5"/>
</svg>
