<svg width="10" height="11" viewBox="0 0 10 11" fill="none" xmlns="http://www.w3.org/2000/svg">
<g clip-path="url(#clip0_25_154)">
<path d="M5.46875 9V9.625C5.46875 9.74932 5.41936 9.86855 5.33146 9.95646C5.24355 10.0444 5.12432 10.0938 5 10.0938C4.87568 10.0938 4.75645 10.0444 4.66854 9.95646C4.58064 9.86855 4.53125 9.74932 4.53125 9.625V9C4.53125 8.87568 4.58064 8.75645 4.66854 8.66854C4.75645 8.58064 4.87568 8.53125 5 8.53125C5.12432 8.53125 5.24355 8.58064 5.33146 8.66854C5.41936 8.75645 5.46875 8.87568 5.46875 9ZM2.34375 5.25C2.34375 4.72464 2.49954 4.21108 2.79141 3.77427C3.08328 3.33745 3.49813 2.99699 3.9835 2.79595C4.46886 2.5949 5.00295 2.5423 5.51821 2.64479C6.03347 2.74728 6.50677 3.00026 6.87825 3.37175C7.24974 3.74323 7.50272 4.21653 7.60521 4.73179C7.7077 5.24705 7.6551 5.78114 7.45405 6.2665C7.25301 6.75187 6.91255 7.16672 6.47573 7.45859C6.03892 7.75046 5.52536 7.90625 5 7.90625C4.29574 7.90553 3.62053 7.62544 3.12255 7.12745C2.62456 6.62947 2.34447 5.95426 2.34375 5.25ZM3.28125 5.25C3.28125 5.58994 3.38205 5.92224 3.57091 6.20489C3.75977 6.48753 4.0282 6.70783 4.34226 6.83792C4.65632 6.96801 5.00191 7.00204 5.33531 6.93572C5.66872 6.86941 5.97497 6.70571 6.21534 6.46534C6.45571 6.22497 6.61941 5.91872 6.68572 5.58531C6.75204 5.25191 6.71801 4.90632 6.58792 4.59226C6.45783 4.2782 6.23753 4.00977 5.95489 3.82091C5.67224 3.63205 5.33994 3.53125 5 3.53125C4.54432 3.53177 4.10745 3.71302 3.78523 4.03523C3.46302 4.35745 3.28177 4.79432 3.28125 5.25ZM7.98789 7.57461C7.94429 7.53101 7.89252 7.49642 7.83555 7.47282C7.77858 7.44922 7.71752 7.43708 7.65586 7.43708C7.5942 7.43708 7.53314 7.44922 7.47617 7.47282C7.4192 7.49642 7.36743 7.53101 7.32383 7.57461C7.28023 7.61821 7.24564 7.66998 7.22204 7.72695C7.19844 7.78392 7.1863 7.84498 7.1863 7.90664C7.1863 7.9683 7.19844 8.02936 7.22204 8.08633C7.24564 8.1433 7.28023 8.19507 7.32383 8.23867L7.79258 8.70742C7.88064 8.79548 8.00007 8.84495 8.12461 8.84495C8.24915 8.84495 8.36858 8.79548 8.45664 8.70742C8.5447 8.61936 8.59417 8.49993 8.59417 8.37539C8.59417 8.25085 8.5447 8.13142 8.45664 8.04336L7.98789 7.57461ZM7.98789 2.92617L8.45664 2.45742C8.50024 2.41382 8.53483 2.36205 8.55843 2.30508C8.58203 2.24811 8.59417 2.18705 8.59417 2.12539C8.59417 2.06373 8.58203 2.00267 8.55843 1.9457C8.53483 1.88873 8.50024 1.83696 8.45664 1.79336C8.36858 1.7053 8.24915 1.65583 8.12461 1.65583C8.06295 1.65583 8.00189 1.66797 7.94492 1.69157C7.88795 1.71517 7.83618 1.74976 7.79258 1.79336L7.32383 2.26211C7.23577 2.35017 7.1863 2.4696 7.1863 2.59414C7.1863 2.71868 7.23577 2.83811 7.32383 2.92617C7.41189 3.01423 7.53132 3.0637 7.65586 3.0637C7.7804 3.0637 7.89983 3.01423 7.98789 2.92617ZM2.34375 7.4375C2.28217 7.43745 2.22119 7.44954 2.16429 7.47306C2.10739 7.49659 2.05567 7.53109 2.01211 7.57461L1.54336 8.04336C1.49976 8.08696 1.46517 8.13873 1.44157 8.1957C1.41797 8.25267 1.40583 8.31373 1.40583 8.37539C1.40583 8.43705 1.41797 8.49811 1.44157 8.55508C1.46517 8.61205 1.49976 8.66382 1.54336 8.70742C1.58696 8.75102 1.63873 8.78561 1.6957 8.80921C1.75267 8.83281 1.81373 8.84495 1.87539 8.84495C1.93705 8.84495 1.99811 8.83281 2.05508 8.80921C2.11205 8.78561 2.16382 8.75102 2.20742 8.70742L2.67617 8.23867C2.74212 8.17311 2.78708 8.08941 2.80532 7.99823C2.82357 7.90705 2.81429 7.81249 2.77865 7.7266C2.74301 7.64071 2.68263 7.56736 2.60519 7.51588C2.52775 7.4644 2.43674 7.43712 2.34375 7.4375ZM2.01211 2.92539C2.10017 3.01345 2.2196 3.06292 2.34414 3.06292C2.46868 3.06292 2.58811 3.01345 2.67617 2.92539C2.76423 2.83733 2.8137 2.7179 2.8137 2.59336C2.8137 2.46882 2.76423 2.34939 2.67617 2.26133L2.20742 1.79258C2.11936 1.70452 1.99993 1.65505 1.87539 1.65505C1.75085 1.65505 1.63142 1.70452 1.54336 1.79258C1.4553 1.88064 1.40583 2.00007 1.40583 2.12461C1.40583 2.24915 1.4553 2.36858 1.54336 2.45664L2.01211 2.92539ZM8.28125 5.25C8.28125 5.37432 8.33064 5.49355 8.41854 5.58146C8.50645 5.66936 8.62568 5.71875 8.75 5.71875H9.375C9.49932 5.71875 9.61855 5.66936 9.70646 5.58146C9.79436 5.49355 9.84375 5.37432 9.84375 5.25C9.84375 5.12568 9.79436 5.00645 9.70646 4.91854C9.61855 4.83064 9.49932 4.78125 9.375 4.78125H8.75C8.62568 4.78125 8.50645 4.83064 8.41854 4.91854C8.33064 5.00645 8.28125 5.12568 8.28125 5.25ZM5 1.96875C5.12432 1.96875 5.24355 1.91936 5.33146 1.83146C5.41936 1.74355 5.46875 1.62432 5.46875 1.5V0.875C5.46875 0.75068 5.41936 0.631452 5.33146 0.543544C5.24355 0.455636 5.12432 0.40625 5 0.40625C4.87568 0.40625 4.75645 0.455636 4.66854 0.543544C4.58064 0.631452 4.53125 0.75068 4.53125 0.875V1.5C4.53125 1.62432 4.58064 1.74355 4.66854 1.83146C4.75645 1.91936 4.87568 1.96875 5 1.96875ZM0.625 5.71875H1.25C1.37432 5.71875 1.49355 5.66936 1.58146 5.58146C1.66936 5.49355 1.71875 5.37432 1.71875 5.25C1.71875 5.12568 1.66936 5.00645 1.58146 4.91854C1.49355 4.83064 1.37432 4.78125 1.25 4.78125H0.625C0.50068 4.78125 0.381452 4.83064 0.293544 4.91854C0.205636 5.00645 0.15625 5.12568 0.15625 5.25C0.15625 5.37432 0.205636 5.49355 0.293544 5.58146C0.381452 5.66936 0.50068 5.71875 0.625 5.71875Z" fill="white"/>
</g>
<defs>
<clipPath id="clip0_25_154">
<rect width="10" height="10" fill="white" transform="matrix(-1 0 0 -1 10 10.25)"/>
</clipPath>
</defs>
</svg>
